<svg height="79" viewBox="0 0 470.46928 79.000002" width="470.46927" xmlns="http://www.w3.org/2000/svg"><path d="m30.3 4.3h1.5v1.6h.1c.3-.6.6-1.1 1.1-1.4s1.1-.4 1.8-.4c.6 0 1.2.1 1.7.4.5.2.9.6 1.3 1s.6 1 .8 1.6.3 1.4.3 2.1c0 .8-.1 1.5-.3 2.1s-.5 1.2-.8 1.6c-.4.4-.8.8-1.3 1s-1.1.4-1.7.4c-1.3 0-2.3-.6-2.9-1.8h-.1v5.4h-1.5zm4.1 8.8c.9 0 1.6-.3 2.1-.8s.7-1.3.7-2.1v-1.8c0-.9-.2-1.6-.7-2.1s-1.2-.8-2.1-.8c-.3 0-.7 0-1 .1s-.6.2-.8.4-.4.4-.5.6-.2.5-.2.8v3.7c0 .3.1.6.2.9s.3.5.5.6c.2.2.5.3.8.4s.6.1 1 .1zm14.2 1.1c-.6-0-1-.2-1.2-.5s-.4-.7-.5-1.2h-.1c-.2.6-.6 1.1-1.1 1.4s-1.1.5-1.8.5c-1 0-1.9-.3-2.4-.8-.6-.5-.9-1.3-.9-2.2s.3-1.6 1-2.1 1.7-.7 3.2-.7h2v-1c-0-.7-.2-1.2-.6-1.6s-1-.6-1.8-.6c-.6 0-1.1.1-1.5.4s-.7.6-1 1.1l-.9-.9c.3-.5.7-1 1.3-1.4s1.3-.6 2.2-.6c1.2 0 2.1.3 2.8.9s1 1.4 1 2.4v5.4h1.1v1.4h-.8zm-4.4-1c.4 0 .7 0 1.1-.1.3-.1.6-.2.8-.4s.4-.4.5-.6.2-.5.2-.7v-1.6h-2c-.9 0-1.5.1-1.9.4s-.6.6-.6 1.1v.4c0 .5.2.9.5 1.1s.8.4 1.4.4zm7.5 1v-9.9h1.5v1.8h.1c.2-.5.5-.9 1-1.3s1.1-.6 1.9-.6h.6v1.5h-.9c-.8 0-1.5.2-1.9.5-.5.3-.7.7-.7 1.2v6.7h-1.6zm7.8-12.2c-.3 0-.6-.1-.7-.2-.1-.2-.2-.4-.2-.6v-.2c0-.3.1-.5.2-.6.1-.2.4-.2.7-.2s.6.1.7.2c.1.2.2.4.2.6v.2c0 .3-.1.5-.2.6-.2.1-.4.2-.7.2zm-.8 2.3h1.5v9.9h-1.5zm7 9.9c-.5 0-.9-.1-1.2-.4s-.4-.7-.4-1.2v-6.9h-1.7v-1.4h.9c.3 0 .6-.1.7-.2s.2-.4.2-.7v-1.8h1.4v2.7h2.2v1.4h-2.2v7.2h2v1.4h-1.9zm4.5-14.2h1.5v5.9h.1c.2-.6.6-1 1-1.3s1-.5 1.8-.5c1 0 1.8.3 2.4 1s.9 1.6.9 2.8v6.3h-1.5v-6.1c0-1.8-.7-2.7-2.2-2.7-.3 0-.6 0-.9.1s-.5.2-.8.3c-.2.2-.4.3-.5.6-.1.2-.2.5-.2.8v6.9h-1.5v-14.1zm14.6 14.5c-.7 0-1.3-.1-1.8-.4-.5-.2-1-.6-1.4-1-.4-.5-.7-1-.9-1.6s-.3-1.3-.3-2.1.1-1.5.3-2.1.5-1.2.9-1.6c.4-.5.9-.8 1.4-1s1.2-.4 1.8-.4c.7 0 1.3.1 1.8.4.5.2 1 .6 1.3 1 .4.4.7.9.9 1.5s.3 1.2.3 1.9v.7h-7.1v.5c0 .4.1.8.2 1.2s.3.7.6.9c.2.3.6.5.9.6s.8.2 1.2.2c.6 0 1.2-.1 1.6-.4.5-.3.8-.7 1.1-1.3l1.1.8c-.3.7-.8 1.2-1.5 1.6-.6.4-1.4.6-2.4.6zm0-9.1c-.4 0-.8.1-1.2.2-.3.1-.6.4-.9.6l-.6.9c-.1.4-.2.8-.2 1.2v.1h5.5v-.2c0-.9-.2-1.6-.7-2.1-.4-.4-1.1-.7-1.9-.7zm6.8 8.8v-9.9h1.5v1.8h.1c.2-.5.5-.9 1-1.3s1.1-.6 1.9-.6h.6v1.5h-.9c-.8 0-1.5.2-1.9.5-.5.3-.7.7-.7 1.2v6.7h-1.6zm14.2 0c-.6 0-1-.2-1.2-.5s-.4-.7-.5-1.2h-.1c-.2.6-.6 1.1-1.1 1.4s-1.1.5-1.8.5c-1 0-1.9-.3-2.4-.8-.6-.5-.9-1.3-.9-2.2s.3-1.6 1-2.1 1.7-.7 3.2-.7h2v-1c0-.7-.2-1.2-.6-1.6s-1-.6-1.8-.6c-.6 0-1.1.1-1.5.4s-.7.6-1 1.1l-.9-.9c.3-.5.7-1 1.3-1.4s1.3-.6 2.2-.6c1.2 0 2.1.3 2.8.9s1 1.4 1 2.4v5.4h1.1v1.4h-.8zm-4.4-1c.4 0 .7 0 1.1-.1.3-.1.6-.2.8-.4s.4-.4.5-.6.2-.5.2-.7v-1.6h-2c-.9 0-1.5.1-1.9.4s-.6.6-.6 1.1v.4c0 .5.2.9.5 1.1s.8.4 1.4.4zm-78.5-9.1c-1.4 0-2.7.5-3.7 1.5-2.8 2.8-7.5 2.8-10.3 0-1-1-2.3-1.5-3.7-1.5-2.9 0-5.2 2.3-5.2 5.2s2.3 5.2 5.2 5.2c1.4 0 2.7-.5 3.7-1.5 2.8-2.8 7.5-2.8 10.3 0 1 1 2.3 1.5 3.7 1.5 2.9 0 5.2-2.3 5.2-5.2s-2.3-5.2-5.2-5.2zm0 8.8c-1 0-1.9-.4-2.6-1.1-1.5-1.5-3.3-2.3-5.3-2.5v-.1c1.9-.2 3.8-1.1 5.3-2.5.7-.7 1.6-1.1 2.6-1.1 2 0 3.6 1.6 3.6 3.6s-1.6 3.7-3.6 3.7z" fill="#fff" transform="scale(4.4141277)"/></svg>