<svg height="50.640034" viewBox="0 0 37.851002 50.640035" width="37.851002" xmlns="http://www.w3.org/2000/svg"><g fill="#1dce79" fill-rule="evenodd"><path d="m27.93 96.146q-15.106 6.114-27.93 7.009 5.719 13.081 27.93-7.009" transform="translate(0 -68.329)"/><path d="m44.652 93.882a77.328 77.328 0 0 1 -26.888 17.3q12.552 10.683 26.888-17.3" transform="translate(-12.624 -66.72)"/><path d="m79.435 66.683q-9.9 23.335-20.921 30.329 18.852 6.671 20.921-30.329" transform="translate(-41.584 -47.391)"/><path d="m1.114 76.174q-1.57 15.54 20.669 5.861a35.05 35.05 0 0 1 -20.669-5.861" transform="translate(-.718 -54.136)"/><path d="m15.978 12.794c1.717-.02 7.139-.435 7.783 1.446a5.6 5.6 0 0 1 -.1 3.049 27.94 27.94 0 0 1 -1.263 3.179 6.975 6.975 0 0 1 -.477.786c-1.27 1.789-3.362 1.5-5.376 1.441-4.616-.131-5.974-1.893-6.229-6.386l.008-2.958a27.436 27.436 0 0 1 5.658-.556m7.307 8.115 2.7 4.2 2.7-4.2.619.874c1.524 2.149 3.839 1.892 6.15 1.827a8.6 8.6 0 0 0 4.547-1.128q.55-.489 1.1-1.015l.058-.055a9.188 9.188 0 0 0 1.426-5.079v-1.08c-.1-3.1.148-2.441-.731-5.548-.686.212-2.795.73-3.843 1.018a13.365 13.365 0 0 0 2.229-1.287 6.489 6.489 0 0 0 2.331-6.92c-7 2.236-11.476-.008-14.326 4.242q.454-2.987 8.546-4.483c-5.456-.551-6.407-1.5-9.286-2.055a10.68 10.68 0 0 0 -1.521-.221 10.689 10.689 0 0 0 -1.52.222c-2.879.55-3.83 1.5-9.286 2.055q8.092 1.5 8.546 4.483c-2.851-4.252-7.328-2.008-14.328-4.244a6.487 6.487 0 0 0 2.331 6.92 13.351 13.351 0 0 0 2.229 1.287c-1.048-.287-3.157-.805-3.843-1.018-.88 3.107-.632 2.452-.731 5.548v1.08a9.188 9.188 0 0 0 1.425 5.079l.058.055q.552.526 1.1 1.015a8.6 8.6 0 0 0 4.546 1.128c2.311.066 4.625.323 6.15-1.827l.62-.874m1.792-1.491-.793 1.233 1.704 2.649v-4.451a1.018 1.018 0 0 0 -.785.372zm10.923-6.624c-1.717-.02-7.139-.435-7.783 1.446a5.6 5.6 0 0 0 .1 3.049 27.832 27.832 0 0 0 1.262 3.179 6.973 6.973 0 0 0 .477.786c1.27 1.789 3.362 1.5 5.377 1.441 4.616-.131 5.973-1.893 6.229-6.386l-.008-2.958a27.428 27.428 0 0 0 -5.654-.557" transform="translate(-6.509)"/><path d="m90.052 53.492a2.452 2.452 0 1 0 1.248-1.245.883.883 0 1 1 -1.246 1.245" transform="translate(-63.848 -36.981)"/><path d="m32.759 54.489a2.447 2.447 0 0 0 -.211-1 .883.883 0 1 1 -1.248-1.242 2.453 2.453 0 1 0 1.456 2.242" transform="translate(-19.795 -36.981)"/></g></svg>