<svg height="236.842" viewBox="0 0 236.84199 236.84199" width="236.842" xmlns="http://www.w3.org/2000/svg" xmlns:xlink="http://www.w3.org/1999/xlink"><clipPath id="a"><path d="m0 480h480v-480h-480z"/></clipPath><g clip-path="url(#a)" fill="#fff" fill-rule="evenodd" transform="matrix(1.3333333 0 0 -1.3333333 -201.578794 438.42066)"><path d="m0 0c-35.325-14.296-67.982-22.491-97.97-24.584 13.375-30.59 46.032-22.395 97.97 24.584" transform="translate(271.5859 231.2412)"/><path d="m0 0c-29.203-28.062-60.641-48.285-94.313-60.666 29.352-24.981 60.79-4.76 94.313 60.666" transform="translate(285.958 233.5391)"/><path d="m0 0c-23.159-54.568-47.62-90.029-73.383-106.382 44.083-15.602 68.544 19.859 73.383 106.382" transform="translate(306.3838 261.1411)"/><path d="m0 0c-3.67-36.339 20.496-43.192 72.499-20.559-25.378-1-50.494 6.12-72.499 20.559" transform="translate(175.0049 251.5107)"/><path d="m0 0c6.022.07 25.04 1.526 27.3-5.072.883-2.578.761-6.144-.365-10.694-1.413-3.739-2.561-7.598-4.428-11.149-.5-.952-1.052-1.879-1.674-2.758-4.453-6.276-11.794-5.254-18.858-5.055-16.191.461-20.955 6.642-21.85 22.4l.027 10.376c6.304 1.467 13.619 1.88 19.848 1.952m25.629-28.465 9.482-14.725 9.483 14.725c.677-.952 1.399-1.975 2.174-3.068 5.347-7.54 13.466-6.638 21.571-6.408 6.986.198 12.168 1.461 15.949 3.957 1.286 1.144 2.573 2.33 3.862 3.558l.204.194c3.063 4.072 4.556 9.896 4.998 17.817l-.011 3.789c-.348 10.86.521 8.562-2.564 19.462-2.406-.746-9.803-2.562-13.48-3.569 2.747 1.25 5.365 2.761 7.818 4.513 7.478 5.72 10.704 15.302 8.175 24.271-24.564-7.843-40.251.028-50.25-14.88 1.062 6.985 11.054 12.227 29.977 15.725-19.14 1.933-22.475 5.277-32.574 7.206-2.454.469-3.985.728-5.332.777-1.345-.049-2.878-.308-5.332-.777-10.098-1.929-13.433-5.273-32.573-7.206 18.923-3.498 28.915-8.74 29.977-15.725-9.999 14.908-25.685 7.037-50.251 14.88-2.529-8.969.698-18.551 8.176-24.271 2.453-1.752 5.071-3.263 7.818-4.513-3.677 1.007-11.074 2.823-13.481 3.569-3.084-10.9-2.216-8.602-2.563-19.462l-.01-3.789c.441-7.921 1.934-13.745 4.998-17.817l.203-.194c1.288-1.228 2.576-2.414 3.862-3.558 3.781-2.496 8.963-3.759 15.949-3.957 8.105-.23 16.223-1.132 21.571 6.408.775 1.093 1.498 2.116 2.174 3.068m6.285 5.228-2.784-4.322 5.981-9.287v15.605c-1.08-.002-2.084-.491-2.753-1.304zm38.309 23.237c-6.023.07-25.04 1.526-27.3-5.072-.883-2.578-.762-6.144.365-10.694 1.413-3.739 2.561-7.598 4.428-11.149.5-.952 1.053-1.879 1.675-2.758 4.452-6.276 11.794-5.254 18.857-5.055 16.19.461 20.954 6.642 21.85 22.4l-.028 10.376c-6.303 1.467-13.619 1.88-19.847 1.952" transform="translate(206.8301 283.9365)"/><path d="m0 0c-.475-1.069-.74-2.251-.74-3.497 0-4.75 3.851-8.6 8.602-8.6s8.603 3.85 8.603 8.6c0 4.753-3.852 8.604-8.603 8.604-1.245 0-2.426-.265-3.495-.74.666-.568 1.089-1.413 1.089-2.357 0-1.711-1.388-3.098-3.098-3.098-.944 0-1.791.422-2.358 1.088" transform="translate(265.5332 270.8999)"/><path d="m0 0c0 1.246-.266 2.428-.74 3.497-.568-.666-1.414-1.088-2.358-1.088-1.711 0-3.098 1.386-3.098 3.097 0 .944.422 1.79 1.088 2.357-1.068.476-2.249.741-3.495.741-4.751 0-8.602-3.851-8.602-8.604 0-4.75 3.851-8.601 8.602-8.601s8.603 3.851 8.603 8.601" transform="translate(219.0903 267.4033)"/></g></svg>