<svg height="50.640999" viewBox="0 0 257.176 50.641" width="257.17599" xmlns="http://www.w3.org/2000/svg"><g fill="#1dce79" fill-rule="evenodd"><path d="m27.93 96.146q-15.106 6.114-27.93 7.009 5.719 13.081 27.93-7.009" transform="translate(0 -68.328)"/><path d="m44.652 93.882a77.328 77.328 0 0 1 -26.888 17.3q12.552 10.683 26.888-17.3" transform="translate(-12.624 -66.719)"/><path d="m79.435 66.683q-9.9 23.335-20.921 30.329 18.852 6.671 20.921-30.329" transform="translate(-41.584 -47.39)"/><path d="m1.114 76.174q-1.57 15.54 20.669 5.861a35.05 35.05 0 0 1 -20.669-5.861" transform="translate(-.718 -54.135)"/><path d="m15.978 12.794c1.717-.02 7.139-.435 7.783 1.446a5.6 5.6 0 0 1 -.1 3.049 27.94 27.94 0 0 1 -1.263 3.179 6.975 6.975 0 0 1 -.477.786c-1.27 1.789-3.362 1.5-5.376 1.441-4.616-.131-5.974-1.893-6.229-6.386l.008-2.958a27.436 27.436 0 0 1 5.658-.556m7.307 8.115 2.7 4.2 2.7-4.2.619.874c1.524 2.149 3.839 1.892 6.15 1.827a8.6 8.6 0 0 0 4.547-1.128q.55-.489 1.1-1.015l.058-.055a9.188 9.188 0 0 0 1.426-5.079v-1.08c-.1-3.1.148-2.441-.731-5.548-.686.212-2.795.73-3.843 1.018a13.365 13.365 0 0 0 2.229-1.287 6.489 6.489 0 0 0 2.331-6.92c-7 2.236-11.476-.008-14.326 4.242q.454-2.987 8.546-4.483c-5.456-.551-6.407-1.5-9.286-2.055a10.68 10.68 0 0 0 -1.521-.221 10.689 10.689 0 0 0 -1.52.222c-2.879.55-3.83 1.5-9.286 2.055q8.092 1.5 8.546 4.483c-2.851-4.252-7.328-2.008-14.328-4.244a6.487 6.487 0 0 0 2.331 6.92 13.351 13.351 0 0 0 2.229 1.287c-1.048-.287-3.157-.805-3.843-1.018-.88 3.107-.632 2.452-.731 5.548v1.08a9.188 9.188 0 0 0 1.425 5.079l.058.055q.552.526 1.1 1.015a8.6 8.6 0 0 0 4.546 1.128c2.311.066 4.625.323 6.15-1.827l.62-.874m1.792-1.491-.793 1.233 1.704 2.649v-4.451a1.018 1.018 0 0 0 -.785.372zm10.923-6.624c-1.717-.02-7.139-.435-7.783 1.446a5.6 5.6 0 0 0 .1 3.049 27.832 27.832 0 0 0 1.262 3.179 6.973 6.973 0 0 0 .477.786c1.27 1.789 3.362 1.5 5.377 1.441 4.616-.131 5.973-1.893 6.229-6.386l-.008-2.958a27.428 27.428 0 0 0 -5.654-.557" transform="translate(-6.509 .001)"/><path d="m90.052 53.492a2.452 2.452 0 1 0 1.248-1.245.883.883 0 1 1 -1.246 1.245" transform="translate(-63.848 -36.98)"/><path d="m32.759 54.489a2.447 2.447 0 0 0 -.211-1 .883.883 0 1 1 -1.248-1.242 2.453 2.453 0 1 0 1.456 2.242" transform="translate(-19.795 -36.98)"/></g><path d="m63.662 40.125c6.148 0 11.066-4.21 12.3-10.544h-4.806a7.851 7.851 0 0 1 -7.489 6.073c-4.992 0-8.308-3.539-8.308-8.83s3.316-8.83 8.308-8.83a8.031 8.031 0 0 1 7.265 5.477h4.918c-1.49-5.962-6.371-9.948-12.183-9.948-7.973 0-13.3 5.328-13.3 13.3s5.327 13.3 13.3 13.3m24.329 0c6.073 0 10.1-3.949 10.1-9.836s-4.024-9.836-10.1-9.836-10.105 3.946-10.105 9.837 4.024 9.836 10.1 9.836m0-3.949c-3.391 0-5.626-2.347-5.626-5.887s2.235-5.887 5.626-5.887 5.625 2.347 5.625 5.887-2.235 5.887-5.625 5.887m21.87 3.949a8.918 8.918 0 0 0 6.185-2.571v2.049h4.471v-25.558h-4.471v8.979a8.919 8.919 0 0 0 -6.185-2.571c-5.887 0-9.836 3.949-9.836 9.836s3.95 9.836 9.836 9.836m.447-3.949a5.889 5.889 0 1 1 5.738-5.887 5.515 5.515 0 0 1 -5.738 5.887m22.988 3.949a9.861 9.861 0 0 0 9.65-6.855h-4.546a5.647 5.647 0 0 1 -5.1 3.13 5.443 5.443 0 0 1 -5.551-4.881h15.275l.372-.373v-.857c0-5.887-4.024-9.836-10.1-9.836s-10.1 3.949-10.1 9.836 4.024 9.836 10.1 9.836m-5.254-12.327a5.625 5.625 0 0 1 10.506 0zm30.588 12.332c6.148 0 11.066-4.21 12.295-10.544h-4.805a7.853 7.853 0 0 1 -7.489 6.073c-4.992 0-8.308-3.539-8.308-8.83s3.316-8.83 8.308-8.83a8.032 8.032 0 0 1 7.26 5.473h4.918c-1.49-5.962-6.371-9.948-12.183-9.948-7.973 0-13.3 5.328-13.3 13.3s5.328 13.3 13.3 13.3m14.978-.522h4.471v-25.557h-4.471zm16.84.522a8.667 8.667 0 0 0 6.036-2.534v2.012h4.471v-18.627h-4.471v2.012a8.663 8.663 0 0 0 -6.036-2.534c-5.812 0-9.686 3.949-9.686 9.836s3.874 9.836 9.686 9.836m.447-3.949c-3.39 0-5.663-2.347-5.663-5.887s2.276-5.891 5.663-5.891c3.354 0 5.589 2.347 5.589 5.887s-2.235 5.887-5.589 5.887m13.487 3.427h4.471v-11.024c0-2.5 1.975-4.173 4.956-4.173h1.527v-3.427a5.481 5.481 0 0 0 -1.975-.372 5.61 5.61 0 0 0 -4.508 2.571v-2.2h-4.471zm13.338-21.46h4.475v-4.1h-4.471zm0 21.46h4.475v-18.624h-4.471zm16.394.522a8.857 8.857 0 0 0 3.166-.522v-3.2h-3.241a1.527 1.527 0 0 1 -1.639-1.565v-10.136h4.695v-3.723h-4.694v-6.93h-4.471v6.93h-2.98v3.723h2.98v10.133c0 3.167 2.458 5.291 6.185 5.291m8.2 6.408h4.807l10.06-25.558h-4.807l-4.583 11.7-4.62-11.7h-4.769l7.116 17.436z" fill="#fff"/></svg>